<svg xmlns="http://www.w3.org/2000/svg" viewBox="0 0 714.14 656.19"><defs><style>.a{fill:#fff;}</style></defs><path class="a" d="M812,984.8c-9.33,0-22.13,1.52-37.74,1.52s-53.57-13.88-53.57-13.88,13,10.2,23,15.4,32.53,21.47,37.08,26,7.81,10.41,16.05,17.78,1.09,11.28-16.26,3.25-38.17-19.73-51.19-27.54-39.25-24.72-42.51-24.51-24.72,0-34.7,0-10.62,6.73-11.49,15.4-1.82,18.52,2.6,23c19.72,20,47.43,40.47,70.05,62.68,20.43,20,36.87,40.74,36.87,76.34,0,75-47.71,108.3-60.14,117.55S636,1317.43,602.14,1331s-76.78,27.62-76.78,27.62,1.3,1,8.24,14.46c6.55,12.69,15.76,29.93,14.89,35s1.88,6.94,8.68,8.24,30.65,1.44,36.58,1.73,38.32,4.2,45.69,6.08a7.61,7.61,0,0,1,3,1.35,1.21,1.21,0,0,0,.2.09,16.66,16.66,0,0,1,3.56,2,16.37,16.37,0,0,1,2.9,2.8l-.33.46a25,25,0,0,0-3.66-.63c-.92-.11-1.81-.14-2.7-.17a6.2,6.2,0,0,0-.85,2.45c0,2.6-3.91,7.38-5.93,10.85s-.72,5.2,1.74,8.38c.74,1,2.16,2.4,3.32,3.93.3.19.63.37.92.57a21.15,21.15,0,0,1,4.88,4.28,21.49,21.49,0,0,1,3.26,5.39l-.48.3a26.43,26.43,0,0,0-7.36-5c-1,1.26-3.56,2.17-8.59,2.35-16.2.58-15.18,2-26,2.46-8.48.34-20.65,1.47-25.56,2a13.07,13.07,0,0,1,1.19,2.51,13.39,13.39,0,0,1,.64,4.14l-.55.14a18.16,18.16,0,0,0-4.2-4.12c-1.21,1.56-4.42,2.38-13-3-14.45-9.11-25.15-17.93-26.31-19.52s-7.95-12.29-8.53-17.79-5.21-7.66-8.24-9.83-5.64,1.59-8-1.44.58-7.23.44-10.27,0-6.36-.58-14.75S504,1363,504,1363s-16.63,1.73-29.06,1.73-52-3.18-52-3.18a48.22,48.22,0,0,1,3.32,6.65c1.45,3.61.29,10-2.74,19.09s3.9,35.85,8.53,46.12,2.74,13.45,2.6,17.78,21.69,3.18,26.31,3.33,13.59-1.3,22.41-.29c.49.06.92.12,1.34.19l1.19,0a20.51,20.51,0,0,1,7,1.78,25,25,0,0,1,5.83,3.67l-.29.48A30.32,30.32,0,0,0,492,1459c-.24,0-.47,0-.7,0a7.56,7.56,0,0,0,2.1,2.51c3.76,2.89,18.79,10.84,23.71,14.31,4.61,3.26,9.1,9.14,13.22,10.93a14.12,14.12,0,0,1,3.73,1.35,18.49,18.49,0,0,1,4.31,2.51,17,17,0,0,1,3.37,3.51l-.39.42a21.72,21.72,0,0,0-4.25-1.38l-.74-.15c-.39,1.17-1.75,2.23-4.65,2.91-8.67,2-8.1,1.3-14.17,2.75s-9.14,5.76-15.53,11.24l.42.3a14.76,14.76,0,0,1,5,5.46l-.39.41a31.44,31.44,0,0,0-6.32-1.65c-5.17,1.29-20.5-3.21-34.55-9.4-19.37-8.53-35.57-24.15-47.13-32.53s-13-14.75-12.87-17.64-2.75-3.18-4.34-6.65,0-4.77.87-7.67-.87-42.94-3.9-52,0-30.36,0-30.36-30.37-8.24-43-12.58-54.22-5.64-82.41-9.11-44.25-19.08-52.92-22.55-36.87-15.62-46.85-18.22-49.45-15.18-58.56-20.82,35.57-17.35,56-20.82,32.53-21.69,32.53-21.69c-25.59-7.38-54.65,5.2-54.65,5.2,9.54-10.41,54.65-25.59,54.65-25.59-37.74,0-75.91,20.39-84.58,21.69s-.87-6.51,26.46-17.79,56.82-20.38,87.62-30.36,164.39-74.61,227.72-93.69,105.84-.44,105.84-.44-6.07-13.44-10.84-25.15-2.6-24.73-2.6-90.23,49.23-118.2,99.54-116,65.72,48.37,77.86,63.11,41.86,29.28,49.67,31.67,47.06,12.79,47.72,24.51S821.33,984.8,812,984.8Z" transform="translate(-113.95 -859.82)"/></svg>